PathFileType	4	(X/Y/Z)	F:\MotionCapture\20160217\3\Generated_files\EMG_Fprce_test02-Dynamic.trc
DataRate	CameraRate	NumFrames	NumMarkers	Units	OrigDataRate	OrigDataStartFrame	OrigNumFrames
120.00	120.00	       6	39	mm	120.00	616	       703
Frame#	Time	Top.Head			Front.Head			Rear.Head			R.Shoulder			R.Offset			R.Elbow			R.Wrist			L.Shoulder			L.Elbow			L.Wrist			R.ASIS			L.ASIS			V.Sacral			R.Thigh			R.Knee			R.Shank			R.Ankle			R.Heel			R.Toe			L.Thigh			L.Knee			L.Shank			L.Ankle			L.Heel			L.Toe			R1			R2			R3			R4			R5			R6			R7			L1			L2			L3			L4			L5			L6			L7			V_Mid_ASIS			V_Pelvis_Origin			V_R.Hip_JC			V_L.Hip_JC			V_R.Knee_JC			V_L.Knee_JC			V_R.Ankle_JC			V_L.Ankle_JC			V_Mid_Hip			V_Mid_Shoulder			V_R.Hand			V_L.Hand			V_R.Toe_Offset_Static			V_L.Toe_Offset_Static			V_R.Toe_Offset			V_L.Toe_Offset			
		X1	Y1	Z1	X2	Y2	Z2	X3	Y3	Z3	X4	Y4	Z4	X5	Y5	Z5	X6	Y6	Z6	X7	Y7	Z7	X8	Y8	Z8	X9	Y9	Z9	X10	Y10	Z10	X11	Y11	Z11	X12	Y12	Z12	X13	Y13	Z13	X14	Y14	Z14	X15	Y15	Z15	X16	Y16	Z16	X17	Y17	Z17	X18	Y18	Z18	X19	Y19	Z19	X20	Y20	Z20	X21	Y21	Z21	X22	Y22	Z22	X23	Y23	Z23	X24	Y24	Z24	X25	Y25	Z25	X26	Y26	Z26	X27	Y27	Z27	X28	Y28	Z28	X29	Y29	Z29	X30	Y30	Z30	X31	Y31	Z31	X32	Y32	Z32	X33	Y33	Z33	X34	Y34	Z34	X35	Y35	Z35	X36	Y36	Z36	X37	Y37	Z37	X38	Y38	Z38	X39	Y39	Z39	

616	5.125	-3154.83472	264.20367	1681.83167				-3051.86206	261.77966	1600.43994				-3017.13599	192.86960	1214.65710	-3008.90845	-38.56799	815.55853	-3032.35181	-43.95723	1077.05225	-3155.42163	46.26941	1372.83704				-3120.90283	449.07413	1387.23535	-3204.07617	428.14713	898.64459				-3020.05005	223.85526	890.89484	-3147.18604	391.69675	512.59021	-3027.84302	410.13498	431.96429	-2912.37451	324.42114	227.46204	-2767.64429	370.63577	117.09186	-2705.29736	299.04703	121.78564	-2884.72461	370.45160	36.18321				-3378.27417	136.10350	454.29895				-3629.06152	191.42302	82.11282							-2932.83691	354.96375	32.82518	-2895.83984	332.56943	39.92342	-2820.84277	288.63007	79.87801	-2752.48413	276.55807	100.28334	-2725.30640	347.11743	108.92278	-2783.26343	384.87357	61.07646	-2840.06421	403.92123	35.82919	-3198.97900	608.13928	1100.85071				-3538.77905	233.84090	66.61548	-3460.60718	237.96486	39.80901				-3525.12085	138.25720	40.83850	-3578.56519	129.27356	59.11008																																																	-3458.81958	601.93298	1086.56567	-2740.48022	446.07593	-39.74026	-2962.79565	374.27100	174.46909	-3578.80518	657.59198	394.31534	
617	5.133	-3166.55566	263.56021	1682.93115				-3065.71021	258.68353	1601.23035				-3029.32227	191.99594	1213.23560	-3022.47192	-38.95633	813.78229	-3045.54736	-45.97902	1075.96265							-3132.89575	447.53699	1387.04541	-3217.60815	428.03687	898.12164				-3036.62988	220.77037	889.17584	-3162.15186	394.22101	511.73990	-3041.85107	411.61838	430.23923	-2921.55176	325.80801	229.38893	-2772.71240	372.16266	123.21335	-2712.22559	299.09219	131.00734	-2885.22925	370.44907	36.19304	-3468.88647	600.17676	1082.34302				-3552.96021	645.63904	382.06262				-3424.30640	208.74011	32.48740				-2931.86572	355.73328	31.56276	-2896.55933	332.54349	39.79364	-2825.17212	290.27374	84.12766	-2758.41846	277.30295	107.49866	-2730.82520	346.51862	116.17205	-2785.59839	384.86548	65.40518	-2840.94727	403.75101	35.85355	-3209.30078	606.78345	1098.90027				-3543.80127	234.88965	60.89340	-3463.65015	236.18117	39.39439				-3527.13916	138.72375	34.88577																																																				-3663.76538	180.69736	75.61216	-3384.13452	82.20756	143.35033	-2966.91992	373.79239	174.69006	
618	5.142	-3178.30884	260.91556	1683.40991				-3075.26563	258.08929	1600.50476				-3041.61719	188.33769	1213.05945	-3037.01587	-39.43203	812.07532	-3059.53345	-46.00201	1073.52026	-3175.43750	45.88244	1372.24634				-3145.19067	446.61874	1386.99524	-3231.53247	425.42896	898.00348				-3047.07764	218.78522	889.38763	-3177.83569	396.83304	511.42038	-3057.06396	414.45535	429.90219	-2931.62109	328.27484	231.78026	-2779.32202	372.93637	130.13728	-2720.46045	298.92041	141.61269	-2885.48413	370.06644	34.98320	-3478.29443	599.68500	1077.32153				-3555.83765	647.68329	381.55228										-2931.34790	356.33438	32.14514	-2897.66211	332.33826	39.58084	-2831.13257	291.59741	89.92299	-2765.84204	278.29803	116.08137	-2737.51587	346.25534	125.23174	-2789.08813	385.00815	70.72967	-2841.96777	402.74213	36.89385	-3219.05054	604.25122	1097.10510				-3546.76538	235.22162	57.90210	-3463.51367	238.69215	40.99331				-3529.44653	137.90457	32.08199																																																				-3412.95020	206.48491	38.16164	-3632.84937	191.39137	66.87579	-2969.64136	372.66418	174.09665	-3618.59326	730.90564	421.69131	-2770.77759	406.34842	57.45987	
619	5.150	-3190.53955	258.66217	1683.67395				-3089.40308	255.61432	1601.85742				-3053.29297	187.27391	1212.91821	-3052.22632	-39.80577	810.25909	-3073.86621	-46.82119	1072.15234	-3191.64453	41.62458	1370.90088				-3156.47803	446.30368	1387.00830	-3245.22827	423.93896	897.62677							-3194.50757	399.87192	511.51135	-3073.35107	418.13907	429.93350	-2943.16504	330.68652	233.96869	-2786.48267	373.39041	137.43056	-2730.97925	297.91455	151.88194	-2886.18701	370.15402	34.88104	-3487.60107	597.45258	1071.54456				-3557.82446	648.49872	381.00699										-2930.46069	356.61490	32.34518	-2898.45386	332.28107	39.09284	-2837.76367	293.06781	93.66689	-2774.80347	278.46112	123.01720	-2745.41309	345.97461	135.16716	-2793.44653	384.37897	76.34133	-2843.13281	402.56473	38.31300	-3228.55518	601.95239	1096.05054							-3466.58447	236.01112	40.72145	-3452.15649	164.12819	34.65268	-3532.01172	138.80840	27.78683	-3503.35327	133.74765	94.93967																																																	-3527.44458	643.55670	322.62875	-3620.97046	733.10925	420.36945	
620	5.158	-3201.74487	258.14252	1684.23022				-3101.31372	253.07921	1602.57971				-3065.59448	186.35413	1213.77747	-3068.27783	-40.64492	808.84003	-3089.07031	-48.08213	1070.75708	-3204.16895	39.74185	1370.56592				-3168.32593	446.14938	1387.04187	-3258.62427	421.73993	897.48584				-3078.27930	215.04921	888.30939	-3211.76270	402.01883	511.35873	-3089.91675	420.81610	430.14920	-2956.03149	334.13336	236.25764	-2795.41992	373.29990	145.07787	-2743.13672	296.90784	162.89058	-2887.23022	369.95441	34.97107	-3496.24292	596.93524	1065.91260							-3587.99341	717.53290	409.18979							-2929.76392	356.71170	32.59504	-2899.76025	331.50858	38.57963	-2846.79199	294.15265	99.25492	-2786.92358	277.91943	133.56407	-2754.94263	344.76880	144.60532	-2798.07031	385.05222	82.31249	-2845.04736	402.04807	40.19608	-3238.07910	599.71814	1094.72229				-3428.93213	284.70880	88.91341	-3468.28125	235.28522	40.45095																																																										-3643.56323	195.47215	49.87201	-3367.41260	176.39386	56.62626	-3674.70825	180.75586	43.72079	-3528.48413	643.72363	321.95383	-3417.26172	207.59802	39.41878	-3558.16357	113.77991	49.55093	
621	5.167	-3213.18945	255.18401	1684.64771				-3112.78149	251.49098	1602.93140				-3077.75464	184.96155	1214.29321	-3085.51514	-41.11193	807.60577	-3104.57886	-49.10065	1069.64075	-3217.33081	37.77040	1370.76184							-3272.17773	419.47372	898.60321				-3086.13721	215.26662	890.09259	-3229.70093	405.38315	512.28271	-3107.27026	423.99872	429.99698	-2970.75146	336.99991	238.38754	-2806.05249	372.63593	152.57243	-2757.48389	296.19965	173.73596	-2889.03223	369.68414	35.19504	-3504.52393	595.24762	1059.46814				-3590.23047	717.71381	410.15106				-3431.96021	203.70627	37.93096				-2929.56689	356.78693	32.70830	-2901.72339	331.18848	38.76614	-2857.43726	295.04953	104.12685	-2799.26123	278.45566	141.60376	-2766.38452	343.99167	153.71233	-2804.66919	384.17963	88.84052	-2848.04419	400.85992	43.05427	-3247.26831	597.97137	1093.61182							-3470.12817	235.05168	39.51296							-3626.65723	731.71185	399.03983																																																	-3530.63867	644.51086	321.23517	-3534.43799	140.02727	29.01534	
